<svg id="Group_9" data-name="Group 9" xmlns="http://www.w3.org/2000/svg" viewBox="0 0 989.999 187.185">
  <defs>
    <style>
      .cls-1 {
        fill: #fff;
      }
    </style>
  </defs>
  <g id="Symbol_1_1" data-name="Symbol 1 – 1">
    <path id="Path_62" data-name="Path 62" class="cls-1" d="M132.069,0h2.08c1.04,1.04,1.04,2.08,2.08,3.12l3.12,3.12c1.04,1.04,2.08,3.12,3.12,4.16s1.04,2.08,2.08,4.16v2.08a39.592,39.592,0,0,0-5.2,6.239c-2.08,3.12-5.2,6.239-8.319,11.439-3.12,4.16-6.239,9.359-10.4,14.559-3.12,5.2-7.279,10.4-10.4,16.639s-7.279,11.439-10.4,17.679a89.806,89.806,0,0,0-10.4,16.639,104.95,104.95,0,0,0-7.279,15.6c-2.08,5.2-3.12,9.359-4.16,12.479v6.24c0,2.08,1.04,3.12,2.08,3.12s2.08,1.04,3.12,1.04h7.279c1.04,0,3.12-1.04,5.2-1.04,1.04,0,2.08,0,2.08,1.04a7.861,7.861,0,0,1-1.04,4.16c-1.04,1.04-2.08,3.12-3.12,4.16a5.4,5.4,0,0,1-4.16,2.08H76.954c-1.04,0-3.12,0-4.16-1.04h0c-5.2-1.04-8.319-4.16-9.359-8.319-1.04-3.12-1.04-8.319,0-14.559a106.7,106.7,0,0,1,4.16-14.559l6.239-15.6c2.08-5.2,4.16-11.439,7.279-16.639s6.239-11.439,9.359-17.679c3.12-5.2,6.239-11.439,10.4-16.639l9.359-15.6c-6.239,5.2-13.519,10.4-19.758,16.639S77.994,58.235,71.754,64.475,60.315,76.954,54.076,83.193a211.767,211.767,0,0,0-15.6,17.679c-3.12,5.2-5.2,9.359-8.319,14.559-2.08,4.16-5.2,9.359-6.239,12.479-2.08,4.16-3.12,7.279-5.2,10.4-1.04,3.12-2.08,5.2-2.08,6.239s-1.04,1.04-2.08,0c-1.04,0-2.08-1.04-3.12-1.04l-3.12-3.12-3.12-3.12c-1.04-1.04-2.08-2.08-2.08-3.12a3.221,3.221,0,0,1-1.04-2.08A71.467,71.467,0,0,1,8.319,118.55c3.12-5.2,6.239-11.439,9.359-17.679s7.279-13.519,11.439-20.8,8.319-14.559,12.479-20.8c3.12-5.2,6.239-10.4,8.319-14.559A153.94,153.94,0,0,1,58.235,31.2a93.724,93.724,0,0,0,5.2-9.359q1.56-3.12,3.12-3.12c-1.04,0-2.08,0-4.16,2.08A31.6,31.6,0,0,0,55.115,26c-3.12,3.12-6.239,5.2-9.359,9.359a93.758,93.758,0,0,0-9.359,10.4c-3.12,4.16-6.239,7.279-9.359,11.439a72.857,72.857,0,0,0-8.319,10.4l-6.239,9.359q-3.12,3.12-3.12,6.239l-1.04,1.04a3.221,3.221,0,0,1-2.08-1.04L3.12,76.954A50.7,50.7,0,0,1,0,69.674c0-2.08,0-4.16,1.04-5.2h0c1.04-1.04,2.08-3.12,4.16-5.2s4.16-5.2,7.279-8.319l10.4-10.4L34.317,29.118c4.16-3.12,8.319-7.279,12.479-10.4,3.12-3.12,7.279-5.2,10.4-8.319a93.724,93.724,0,0,1,9.359-5.2c3.12-1.04,5.2-1.04,7.279,0h0l1.04,1.04a14.96,14.96,0,0,0,2.08,3.12c1.04,1.04,1.04,2.08,2.08,4.16s1.04,3.12,0,4.16c0,2.08-1.04,5.2-2.08,8.319s-3.12,6.239-4.16,10.4a101.326,101.326,0,0,1-5.2,11.439,77.563,77.563,0,0,1-7.279,12.479v1.04c5.2-6.239,10.4-11.439,16.639-17.679S88.393,32.237,94.632,27.038a228.415,228.415,0,0,1,18.718-14.559C118.55,7.279,124.79,4.16,132.069,0Z"/>
    <path id="Path_63" data-name="Path 63" class="cls-1" d="M69.215,6.218c1.04-1.04,3.12,0,4.16,0a14.356,14.356,0,0,1,4.16,3.12,22.731,22.731,0,0,1,3.12,5.2c1.04,2.08,0,4.16,0,6.239,0,1.04-1.04,2.08-2.08,3.12a22.731,22.731,0,0,0-3.12,5.2h0c-2.08,3.12-3.12,6.239-5.2,9.359s-4.16,7.279-6.239,10.4-3.12,6.239-5.2,9.359a11.213,11.213,0,0,0-2.08,7.279v1.04h1.04c2.08-1.04,5.2-2.08,7.279-4.16a45.229,45.229,0,0,1,7.279-6.239,57.684,57.684,0,0,0,6.239-8.319c2.08-3.12,4.16-5.2,6.24-8.319l2.08-3.12c1.04-1.04,2.08-2.08,3.12-2.08a3.82,3.82,0,0,1,3.12,1.04c1.04,1.04,1.04,1.04,1.04,3.12a7.861,7.861,0,0,1-1.04,4.16l-3.12,5.2c-3.12,5.2-7.279,9.359-11.439,14.559A70.594,70.594,0,0,1,66.1,74.852c-1.04,1.04-2.08,1.04-3.12,2.08s-2.08,1.04-4.16,2.08c-1.04,1.04-3.12,1.04-4.16,2.08-2.08,0-3.12,1.04-5.2,1.04-4.16,0-6.239-2.08-7.279-4.16-1.04-3.12-1.04-6.24-1.04-10.4h0c-1.04,2.08-3.12,3.12-4.16,5.2l-4.16,4.16c-1.04,1.04-2.08,1.04-3.12,2.08s-2.08,1.04-4.16,2.08c-1.04,1.04-3.12,1.04-4.16,2.08-1.04-3.12-3.12-2.08-4.16-2.08a8.754,8.754,0,0,1-7.279-4.16c-1.04-3.12-1.04-6.24-1.04-10.4a3.82,3.82,0,0,1,1.04-3.12c1.04-1.04,0-3.12,0-4.16,1.04-2.08,1.04-4.16,2.08-6.239s2.08-5.2,3.12-7.279c2.08-2.08,3.12-5.2,5.2-7.279,1.04-3.12,3.12-5.2,4.16-8.319l6.24-12.479c2.08-4.16,3.12-7.279,4.16-9.359l1.04-2.08c1.04-1.04,3.12,0,4.16,0,1.04,1.04,3.12,2.08,4.16,4.16s2.08,3.12,3.12,5.2,0,4.16,0,6.239c0,1.04-1.04,2.08-2.08,3.12a22.732,22.732,0,0,0-3.12,5.2h0c-2.08,3.12-3.12,6.24-5.2,9.359s-4.16,6.239-5.2,10.4-3.12,6.239-4.16,9.359-2.08,5.2-2.08,7.279v1.04h1.04c2.08-1.04,5.2-2.08,7.279-4.16l6.24-6.239c2.08-2.08,4.16-5.2,6.239-7.279,2.08-3.12,4.16-5.2,6.239-8.319h0a3.221,3.221,0,0,1-1.04-2.08l1.04-1.04,3.12-7.279L61.936,18.7A71.7,71.7,0,0,0,66.1,8.3Z" transform="translate(83.652 54.097)"/>
    <path id="Path_64" data-name="Path 64" class="cls-1" d="M91.954,90.9a57.682,57.682,0,0,0-6.239,8.319,67.279,67.279,0,0,1-8.319,9.359,57.149,57.149,0,0,1-9.359,7.279,19.741,19.741,0,0,1-9.359,3.12,9.375,9.375,0,0,1-5.2-1.04,14.355,14.355,0,0,1-4.16-3.12,7.943,7.943,0,0,1-2.08-5.2v-7.279c1.04-2.08,1.04-5.2,2.08-7.279s2.08-5.2,3.12-7.279c1.04-3.12,3.12-5.2,4.16-8.319,2.08-3.12,3.12-6.239,6.239-10.4,1.04-2.08,2.08-3.12,2.08-5.2C65.956,61.78,67,60.74,67,59.7l-6.239,5.2c-3.12,3.12-6.239,5.2-9.359,8.319a75.62,75.62,0,0,0-8.319,9.359,124.149,124.149,0,0,0-8.319,16.639c-2.08,5.2-4.16,11.439-6.239,16.639,0,1.04-1.04,1.04-3.12,1.04-1.04,0-3.12,0-4.16-1.04s-3.12-2.08-4.16-3.12-2.08-2.08-2.08-3.12c1.04-5.2,3.12-10.4,5.2-15.6a104.951,104.951,0,0,1,7.279-15.6c3.12-5.2,5.2-10.4,8.319-15.6l9.359-15.6,5.2-8.319c2.08-3.12,4.16-6.239,5.2-9.359s4.16-6.239,5.2-9.359c2.08-3.12,3.12-6.239,5.2-9.359,1.04-3.12,3.12-5.2,4.16-8.319a3.163,3.163,0,0,1,4.16,0,22.731,22.731,0,0,0,5.2,3.12,22.731,22.731,0,0,1,3.12,5.2c1.04,2.08,1.04,4.16,0,5.2s-1.04,3.12-3.12,5.2c-1.04,2.08-3.12,5.2-4.16,7.279-2.08,3.12-3.12,6.239-5.2,9.359s-4.16,6.239-5.2,9.359l-2.08,3.12c3.12-2.08,5.2-4.16,8.319-5.2s5.2-2.08,8.319-2.08c1.04,0,2.08,1.04,3.12,2.08a14.355,14.355,0,0,1,3.12,4.16c1.04,2.08,1.04,3.12,2.08,5.2s0,3.12,0,4.16A113.434,113.434,0,0,1,81.555,70.1c-2.08,4.16-4.16,7.279-5.2,9.359A21.755,21.755,0,0,1,72.2,85.7l-3.12,6.239C67,94.017,67,96.1,65.956,98.177s-1.04,4.16-2.08,6.239l1.04-1.04h0a70.528,70.528,0,0,0,9.359-6.239c4.16-3.12,7.279-7.279,11.439-12.479,1.04-1.04,2.08-3.12,3.12-4.16a14.356,14.356,0,0,0,3.12-4.16l2.08-3.12h2.08a3.631,3.631,0,0,1,2.08,1.04l2.08,2.08c1.04,1.04,0,1.04,0,2.08h0L91.954,90.9Z" transform="translate(140.987 16.214)"/>
    <path id="Path_65" data-name="Path 65" class="cls-1" d="M87.955,26.6a1.018,1.018,0,0,1-1.04,1.04c-1.04,0-1.04,0-2.08,1.04h-4.16l3.12,3.12c1.04,1.04,2.08,2.08,2.08,3.12,1.04,1.04,1.04,2.08,1.04,4.16V42.2c0,1.04-1.04,1.04-1.04,2.08s-1.04,1.04-1.04,2.08c-1.04,2.08-2.08,3.12-3.12,5.2s-2.08,3.12-3.12,5.2-2.08,3.12-2.08,5.2c-1.04,1.04-1.04,3.12-1.04,4.16h1.04c2.08-1.04,5.2-2.08,7.279-4.16a45.23,45.23,0,0,1,7.279-6.239,57.686,57.686,0,0,0,6.24-8.319c2.08-3.12,3.12-5.2,5.2-8.319,1.04-1.04,1.04-1.04,1.04-2.08a3.631,3.631,0,0,0,1.04-2.08h2.08c1.04,0,2.08,1.04,3.12,1.04,1.04,1.04,1.04,2.08,2.08,3.12s0,1.04,0,2.08l-3.12,5.2h0c-3.12,5.2-7.279,9.359-11.439,14.559A70.593,70.593,0,0,1,84.835,73.394c-1.04,1.04-2.08,1.04-3.12,2.08s-2.08,1.04-4.16,2.08-3.12,1.04-4.16,2.08c-2.08,0-3.12,1.04-5.2,1.04-4.16,0-7.279-2.08-8.319-4.16-2.08-2.08-2.08-5.2-2.08-9.359-4.16,3.12-7.279,6.239-11.439,9.359-4.16,2.08-7.279,4.16-11.439,4.16a9.441,9.441,0,0,1-7.279-3.12c-2.08-1.04-3.12-3.12-4.16-5.2s-1.04-4.16-2.08-6.239V59.876c0-2.08,1.04-3.12,1.04-4.16a71.7,71.7,0,0,1,4.16-10.4,69.944,69.944,0,0,1,7.279-11.439c3.12-4.16,5.2-7.279,8.319-10.4a93.757,93.757,0,0,1,10.4-9.359A27.706,27.706,0,0,1,63,7.88,37.384,37.384,0,0,1,74.436,5.8h3.12a3.82,3.82,0,0,1,3.12,1.04,14.356,14.356,0,0,1,4.16,3.12,7.943,7.943,0,0,1,2.08,5.2V21.4C86.915,23.479,88.994,24.518,87.955,26.6ZM73.4,26.6h3.12c1.04,0,2.08,1.04,3.12,2.08,0,0-1.04-1.04,0-1.04V20.359c0-1.04-1.04-1.04-1.04-2.08-1.04,0-1.04-1.04-2.08-1.04a16.773,16.773,0,0,0-9.359,3.12A67.279,67.279,0,0,0,57.8,28.678a46.172,46.172,0,0,0-8.319,11.439,91.452,91.452,0,0,1-6.239,10.4c0,1.04-1.04,2.08-1.04,3.12s-1.04,3.12-1.04,4.16v3.12c0,1.04,0,1.04,1.04,2.08s1.04,1.04,2.08,1.04H47.4c1.04,0,3.12-1.04,5.2-3.12s4.16-3.12,6.239-5.2a45.23,45.23,0,0,0,6.24-7.279c2.08-2.08,4.16-4.16,5.2-6.239s2.08-5.2,3.12-7.279,2.08-4.16,2.08-6.239Z" transform="translate(201.142 54.515)"/>
    <path id="Path_66" data-name="Path 66" class="cls-1" d="M31.18,35.237l-2.08-5.2a5.719,5.719,0,0,0,5.2-3.12c1.04-2.08,1.04-5.2,1.04-10.4H29.1V3H43.659V15.479q0,9.359-3.12,15.6C38.459,35.237,35.34,35.237,31.18,35.237Z" transform="translate(273.515 28.197)"/>
    <path id="Path_67" data-name="Path 67" class="cls-1" d="M30.3,71.355c1.04-3.12,2.08-7.279,4.16-10.4s4.16-6.239,7.279-8.319l3.12-4.16c3.12-4.16,5.2-8.319,8.319-11.439,3.12-4.16,6.239-7.279,9.359-11.439l2.08-2.08c0-1.04,1.04-1.04,2.08-2.08a45.228,45.228,0,0,0,6.239-7.279L82.3,4.8a14.355,14.355,0,0,0,4.16,3.12,8.119,8.119,0,0,1,4.16,4.16,7.884,7.884,0,0,1,2.08,4.16,5.4,5.4,0,0,1-2.08,4.16h0q-3.12,1.56-3.12,3.12c-1.04,1.04-1.04,2.08-2.08,3.12l-2.08,2.08c-3.12,3.12-4.16,6.239-5.2,9.359s-2.08,6.239-2.08,9.359c0,2.08-1.04,3.12-1.04,5.2v5.2l-1.04,7.279a17.568,17.568,0,0,1-3.12,10.4c-2.08,3.12-3.12,6.239-6.239,8.319s-5.2,4.16-8.319,5.2-6.239,2.08-9.359,1.04a19.591,19.591,0,0,1-8.319-2.08,22.683,22.683,0,0,1-5.2-4.16c-1.04-1.04-2.08-4.16-2.08-6.239A13.189,13.189,0,0,1,30.3,71.355ZM58.378,47.437v-4.16l-5.2,7.279h0v8.319a9.375,9.375,0,0,1-1.04,5.2c0,2.08-1.04,3.12-2.08,3.12a2.237,2.237,0,0,0-2.08-2.08,3.82,3.82,0,0,0-3.12,1.04c-1.04,1.04-2.08,1.04-3.12,2.08s-2.08,2.08-2.08,3.12v4.16c1.04,1.04,1.04,2.08,3.12,3.12a3.82,3.82,0,0,0,3.12,1.04,3.82,3.82,0,0,0,3.12-1.04c1.04-1.04,2.08-1.04,3.12-2.08s1.04-2.08,2.08-3.12,1.04-3.12,1.04-4.16c0-3.12,1.04-6.239,1.04-9.359v-5.2C57.338,51.6,58.378,49.516,58.378,47.437Z" transform="translate(284.794 45.116)"/>
    <path id="Path_68" data-name="Path 68" class="cls-1" d="M131.71,92.752V84.433c0-2.08-1.04-5.2-2.08-6.239a14.356,14.356,0,0,0-3.12-4.16c-1.04-1.04-3.12-2.08-4.16-1.04h-2.08c-2.08,0-3.12,0-4.16-1.04a3.82,3.82,0,0,1-1.04-3.12c-6.239,10.4-11.439,19.758-17.679,30.158-5.2,9.359-10.4,19.758-14.559,29.118h0c0,1.04-1.04,1.04-2.08,0l-3.12-3.12a22.73,22.73,0,0,1-3.12-5.2,7.861,7.861,0,0,1-1.04-4.16c2.08-6.24,6.239-13.519,9.359-21.838L95.313,68.834c4.16-8.319,9.359-16.639,14.559-24.958S119.231,28.278,124.43,21c-4.16,3.12-9.359,6.239-13.519,10.4s-9.359,8.319-13.519,12.479A78.527,78.527,0,0,0,85.954,58.435c-3.12,5.2-7.279,9.359-9.359,13.519s-5.2,8.319-6.239,12.479c-2.08,4.16-3.12,7.279-3.12,10.4a2.237,2.237,0,0,1-2.08,2.08c-1.04,0-3.12-1.04-5.2-2.08s-3.12-3.12-4.16-5.2c-2.08-4.16-3.12-6.24-2.08-8.319,0-2.08,1.04-3.12,1.04-4.16a168.243,168.243,0,0,1,10.4-18.718c4.16-6.239,8.319-12.479,13.519-17.679l15.6-15.6a68.319,68.319,0,0,1,17.679-12.479c6.239-4.16,12.479-6.239,18.718-8.319S144.189,1.24,150.428.2h0a37.384,37.384,0,0,1,11.439,2.08,16.172,16.172,0,0,1,8.319,6.239c2.08,2.08,3.12,5.2,4.16,8.319s1.04,6.239,0,10.4a3.82,3.82,0,0,1-1.04,3.12c0,1.04,0,2.08-1.04,2.08l-6.239,12.479a24.552,24.552,0,0,1-8.319,9.359c-3.12,2.08-6.239,5.2-9.359,7.279a48.576,48.576,0,0,1-10.4,5.2c2.08,1.04,3.12,3.12,5.2,5.2a21.756,21.756,0,0,1,4.16,6.239c1.04,2.08,2.08,4.16,2.08,6.239s1.04,4.16,1.04,7.279c-1.04,8.319-4.16,15.6-8.319,22.878s-10.4,12.479-17.679,17.679-14.559,8.319-23.918,11.439-17.679,4.16-28.078,4.16c-5.2,0-9.359-1.04-14.559-2.08a24.789,24.789,0,0,1-11.439-6.24c-3.12-3.12-5.2-5.2-7.279-9.359-2.08-3.12-2.08-7.279-1.04-11.439,0-3.12,2.08-5.2,3.12-8.319s4.16-6.24,7.279-9.359a7.861,7.861,0,0,1,4.16,1.04,13.19,13.19,0,0,0,6.24,1.04,7.943,7.943,0,0,1,5.2,2.08c1.04,1.04,2.08,1.04,2.08,2.08-4.16,2.08-6.239,5.2-8.319,7.279s-3.12,4.16-3.12,6.24a13.19,13.19,0,0,0,1.04,6.239c1.04,2.08,2.08,3.12,4.16,5.2l6.239,3.12c2.08,1.04,5.2,1.04,8.319,1.04a58.885,58.885,0,0,0,18.718-3.12,92.185,92.185,0,0,0,17.679-8.319,83.118,83.118,0,0,0,13.519-13.519C128.59,105.231,131.71,98.992,131.71,92.752ZM150.428,9.559a25.844,25.844,0,0,0-8.319,1.04c-3.12,1.04-5.2,2.08-8.319,3.12l3.12,3.12a14.356,14.356,0,0,1,3.12,4.16c1.04,1.04,1.04,3.12,1.04,4.16s0,3.12-1.04,4.16c-4.16,5.2-7.279,11.439-11.439,16.639s-7.279,11.439-10.4,16.639h1.04c2.08,0,4.16-1.04,8.319-3.12a27.705,27.705,0,0,0,10.4-6.239,42.264,42.264,0,0,0,10.4-9.359A37.4,37.4,0,0,0,156.668,31.4c0-1.04,1.04-3.12,1.04-4.16s1.04-3.12,1.04-4.16v-5.2c0-2.08,0-3.12-1.04-4.16l-3.12-3.12C153.548,10.6,152.508,9.559,150.428,9.559Z" transform="translate(351.851 1.88)"/>
    <path id="Path_69" data-name="Path 69" class="cls-1" d="M115.495,26.6a1.018,1.018,0,0,1-1.04,1.04c-1.04,0-1.04,0-2.08,1.04h-4.16l3.12,3.12c1.04,1.04,2.08,2.08,2.08,3.12,1.04,1.04,1.04,2.08,1.04,4.16V42.2c0,1.04-1.04,1.04-1.04,2.08s-1.04,1.04-1.04,2.08c-1.04,1.04-1.04,3.12-2.08,5.2s-2.08,3.12-3.12,5.2-2.08,3.12-2.08,5.2c-1.04,1.04-1.04,3.12-1.04,4.16h1.04c2.08-1.04,5.2-2.08,7.279-4.16a45.229,45.229,0,0,1,7.279-6.239,57.68,57.68,0,0,0,6.239-8.319c2.08-3.12,4.16-5.2,6.239-8.319-1.04,0-1.04-1.04,0-1.04a3.631,3.631,0,0,0,1.04-2.08h2.08c1.04,0,2.08,1.04,3.12,1.04l2.08,2.08c1.04,1.04,0,1.04,0,2.08l-3.12,5.2h0c-3.12,5.2-7.279,9.359-11.439,14.559a54.726,54.726,0,0,1-14.559,12.479c-1.04,1.04-2.08,1.04-3.12,2.08s-2.08,1.04-4.16,2.08-3.12,1.04-4.16,2.08c-2.08,0-3.12,1.04-5.2,1.04-4.16,0-7.279-2.08-8.319-4.16-2.08-2.08-2.08-5.2-2.08-9.359-4.16,3.12-7.279,6.239-11.439,9.359-4.16,2.08-7.279,4.16-11.439,4.16a9.441,9.441,0,0,1-7.279-3.12c-2.08-1.04-3.12-3.12-4.16-5.2s-1.04-4.16-2.08-6.239V59.876c0-2.08,1.04-3.12,1.04-4.16a71.7,71.7,0,0,1,4.16-10.4,69.948,69.948,0,0,1,7.279-11.439c3.12-4.16,5.2-7.279,8.319-10.4a93.758,93.758,0,0,1,10.4-9.359A27.706,27.706,0,0,1,89.5,7.88,37.384,37.384,0,0,1,100.936,5.8h3.12a3.82,3.82,0,0,1,3.12,1.04c4.16,0,6.24,1.04,7.279,2.08a7.944,7.944,0,0,1,2.08,5.2v6.239A13.19,13.19,0,0,1,115.495,26.6Zm-14.559,0h3.12c1.04,0,2.08,1.04,3.12,1.04,0,0-1.04-1.04,0-1.04V19.319c0-1.04-1.04-1.04-1.04-2.08-1.04,0-1.04-1.04-2.08-1.04a16.773,16.773,0,0,0-9.359,3.12,93.756,93.756,0,0,0-10.4,9.359,46.172,46.172,0,0,0-8.319,11.439,91.455,91.455,0,0,1-6.24,10.4c0,1.04-1.04,2.08-1.04,3.12s-1.04,3.12-1.04,4.16v3.12c0,1.04,0,1.04,1.04,2.08s1.04,1.04,2.08,1.04H73.9c1.04,0,3.12-1.04,5.2-3.12s4.16-3.12,6.239-5.2a45.229,45.229,0,0,0,6.239-7.279c2.08-2.08,4.16-4.16,5.2-6.24s2.08-5.2,3.12-7.279a13.19,13.19,0,0,0,1.04-6.239Z" transform="translate(450.219 54.515)"/>
    <path id="Path_70" data-name="Path 70" class="cls-1" d="M101.5,51.281a48.575,48.575,0,0,1,10.4-5.2c3.12-1.04,6.24-2.08,9.359-1.04,2.08,0,5.2,1.04,6.24,2.08,2.08,1.04,3.12,3.12,4.16,4.16s1.04,4.16,1.04,6.239V63.76c-1.04,4.16-2.08,7.279-3.12,11.439a62.065,62.065,0,0,1-9.359,15.6c-3.12,5.2-7.279,9.359-11.439,13.519a66.761,66.761,0,0,1-13.519,10.4,44.548,44.548,0,0,1-13.519,5.2,15.03,15.03,0,0,1-7.279-2.08c-2.08-1.04-4.16-2.08-5.2-4.16l-1.04,2.08c0,1.04-1.04,1.04-3.12,1.04-1.04,0-3.12,0-4.16-1.04s-3.12-2.08-4.16-3.12-2.08-2.08-2.08-3.12c1.04-5.2,3.12-10.4,5.2-15.6a104.952,104.952,0,0,1,7.279-15.6c3.12-5.2,5.2-10.4,8.319-15.6l9.359-15.6,5.2-8.319c2.08-3.12,4.16-6.239,5.2-9.359s4.16-6.239,5.2-9.359c2.08-3.12,3.12-6.239,5.2-9.359,1.04-3.12,3.12-5.2,4.16-8.319a3.163,3.163,0,0,1,4.16,0,22.731,22.731,0,0,0,5.2,3.12,22.731,22.731,0,0,1,3.12,5.2c1.04,2.08,1.04,4.16,0,5.2s-1.04,3.12-3.12,5.2c-1.04,2.08-3.12,5.2-4.16,7.279-2.08,3.12-3.12,6.239-5.2,9.359s-4.16,6.239-5.2,9.359ZM86.937,74.159c-2.08,3.12-4.16,6.239-5.2,9.359-2.08,3.12-3.12,6.24-5.2,9.359v6.239c0,2.08,2.08,3.12,4.16,3.12s4.16,0,6.239-2.08a31.6,31.6,0,0,0,7.279-5.2,59.448,59.448,0,0,0,7.279-8.319c2.08-3.12,5.2-6.24,7.279-9.359s4.16-6.239,5.2-9.359a50.7,50.7,0,0,1,3.12-7.279c0-2.08,0-4.16-2.08-4.16a13.19,13.19,0,0,0-6.24,1.04c-2.08,1.04-5.2,2.08-7.279,3.12a31.6,31.6,0,0,0-7.279,5.2A67.894,67.894,0,0,1,86.937,74.159Z" transform="translate(514.134 15.274)"/>
    <path id="Path_71" data-name="Path 71" class="cls-1" d="M129.494,6.218c1.04-1.04,3.12,0,4.16,0a14.357,14.357,0,0,1,4.16,3.12,22.734,22.734,0,0,1,3.12,5.2c1.04,2.08,0,4.16,0,6.239,0,1.04-1.04,2.08-2.08,3.12a22.736,22.736,0,0,0-3.12,5.2h0c-2.08,3.12-3.12,6.239-5.2,9.359s-4.16,6.239-5.2,10.4-3.12,6.239-4.16,9.359-2.08,5.2-2.08,7.279v1.04h1.04c2.08-1.04,5.2-2.08,7.279-4.16l6.239-6.239c2.08-2.08,4.16-5.2,6.24-7.279,2.08-3.12,4.16-5.2,6.239-8.319h0l2.08-3.12c2.08-4.16,5.2-9.359,7.279-14.559s5.2-10.4,7.279-16.639c1.04-1.04,3.12,0,4.16,0s3.12,2.08,5.2,3.12a5.719,5.719,0,0,1,3.12,5.2c0,2.08,1.04,4.16,0,6.239L147.173,70.692c-2.08,4.16-5.2,9.359-7.279,13.519s-5.2,8.319-7.279,11.439c2.08,2.08,5.2,3.12,7.279,5.2a45.228,45.228,0,0,0,7.279,6.239h0a1.018,1.018,0,0,0,1.04,1.04l1.04,1.04c1.04,1.04,1.04,1.04,1.04,2.08s-1.04,2.08-2.08,3.12-2.08,2.08-3.12,2.08c-1.04,1.04-3.12,1.04-4.16,2.08s-3.12,1.04-4.16,1.04h-2.08l-4.16-4.16-8.319-6.24c-6.239,7.279-12.479,13.519-19.758,17.679A49.4,49.4,0,0,1,77.5,133.087c-3.12,0-6.239,0-8.319-1.04a50.7,50.7,0,0,1-7.279-3.12c-2.08-1.04-3.12-3.12-4.16-6.239s-1.04-5.2-1.04-9.359c1.04-4.16,2.08-8.319,5.2-12.479a20.406,20.406,0,0,1,9.359-9.359,35.143,35.143,0,0,1,12.479-6.239,60.862,60.862,0,0,1,13.519-2.08h7.279c2.08,0,4.16,0,5.2,1.04s3.12,1.04,5.2,1.04c1.04,1.04,3.12,1.04,5.2,2.08a31.137,31.137,0,0,0,4.16-8.319c1.04-3.12,3.12-5.2,5.2-8.319l-2.08,2.08c-1.04,1.04-2.08,1.04-3.12,2.08s-2.08,1.04-4.16,2.08c-1.04,1.04-3.12,1.04-4.16,2.08-2.08,0-3.12,1.04-5.2,1.04a8.754,8.754,0,0,1-7.279-4.16c-1.04-3.12-1.04-6.239-1.04-10.4a3.82,3.82,0,0,1,1.04-3.12,3.82,3.82,0,0,1,1.04-3.12c1.04-2.08,1.04-4.16,2.08-6.239s2.08-5.2,3.12-7.279,2.08-5.2,4.16-8.319c1.04-3.12,3.12-5.2,4.16-8.319l6.239-12.479c2.08-4.16,3.12-7.279,4.16-9.359Zm-52,117.51c3.12,0,5.2-1.04,8.319-2.08s5.2-3.12,8.319-4.16a52.084,52.084,0,0,0,8.319-7.279,57.154,57.154,0,0,0,7.279-9.359,33.216,33.216,0,0,0-14.559-3.12,28.791,28.791,0,0,0-9.359,1.04l-9.359,3.12c-3.12,1.04-5.2,3.12-7.279,5.2a9.441,9.441,0,0,0-3.12,7.279v4.16l3.12,3.12c1.04,1.04,2.08,1.04,4.16,1.04A7.861,7.861,0,0,0,77.5,123.728Z" transform="translate(532.932 54.097)"/>
    <path id="Path_72" data-name="Path 72" class="cls-1" d="M162.152,91.813c-3.12,5.2-6.24,9.359-9.359,14.559s-7.279,9.359-11.439,13.519l-12.479,12.479a48.886,48.886,0,0,1-12.479,9.359,32.231,32.231,0,0,1-13.519,6.24c-4.16,1.04-8.319,2.08-12.479,2.08a16.773,16.773,0,0,1-9.359-3.12q-3.12-1.56-6.24-6.239c-2.08-2.08-3.12-5.2-4.16-8.319s-1.04-6.24-1.04-10.4a129.324,129.324,0,0,1,4.16-16.639c2.08-6.239,5.2-12.479,8.319-18.718A193.191,193.191,0,0,1,93.518,66.855,132.439,132.439,0,0,1,107.037,47.1c5.2-6.239,10.4-12.479,15.6-17.679a208.213,208.213,0,0,1,16.639-14.559c5.2-4.16,11.439-7.279,16.639-10.4C161.113,2.38,167.352.3,172.552.3c3.12,0,6.24,0,8.319,1.04a22.732,22.732,0,0,1,5.2,3.12c1.04,2.08,2.08,3.12,2.08,5.2V15.9c0,2.08-1.04,4.16-2.08,7.279-1.04,2.08-2.08,5.2-4.16,8.319s-3.12,5.2-5.2,8.319a45.233,45.233,0,0,1-6.24,7.279l-2.08,2.08c0-1.04-1.04,0-2.08,1.04a3.82,3.82,0,0,1-3.12,1.04c-1.04,0-2.08,1.04-3.12,1.04a3.821,3.821,0,0,1-3.12-1.04,22.732,22.732,0,0,0-5.2-3.12c2.08-1.04,4.16-3.12,6.239-5.2s4.16-5.2,7.279-8.319l6.24-9.359a59.665,59.665,0,0,0,4.16-7.279c0-1.04,1.04-1.04,1.04-2.08v-1.04c0-1.04,0-2.08-1.04-2.08s-2.08-1.04-4.16-1.04c-3.12,0-7.279,2.08-11.439,4.16s-8.319,6.239-12.479,10.4a159.923,159.923,0,0,0-12.479,13.519,148.793,148.793,0,0,0-11.439,15.6c-4.16,5.2-7.279,10.4-10.4,14.559-3.12,5.2-5.2,8.319-7.279,12.479s-4.16,7.279-6.239,11.439-4.16,8.319-5.2,12.479a19.28,19.28,0,0,0-2.08,7.279,13.19,13.19,0,0,0-1.04,6.24c-1.04,5.2-1.04,8.319,0,11.439s3.12,5.2,6.24,5.2a20.567,20.567,0,0,0,10.4-2.08c4.16-2.08,7.279-3.12,10.4-5.2a72.858,72.858,0,0,0,10.4-8.319,93.767,93.767,0,0,0,9.359-10.4,46.175,46.175,0,0,0,8.319-11.439c3.12-4.16,5.2-7.279,7.279-10.4a3.631,3.631,0,0,1,2.08-1.04,3.82,3.82,0,0,1,3.12,1.04,2.237,2.237,0,0,1,2.08,2.08l1.04,1.04Z" transform="translate(654.181 2.82)"/>
    <path id="Path_73" data-name="Path 73" class="cls-1" d="M142.315,27.538a1.018,1.018,0,0,1-1.04,1.04,1.018,1.018,0,0,1-1.04,1.04h-4.16l3.12,3.12c1.04,1.04,2.08,2.08,2.08,3.12,1.04,1.04,1.04,2.08,1.04,4.16v3.12c-1.04,0-1.04,1.04-1.04,2.08s-1.04,1.04-1.04,2.08c-1.04,2.08-2.08,3.12-3.12,5.2s-2.08,3.12-3.12,5.2-2.08,3.12-2.08,5.2c-1.04,1.04-1.04,3.12-1.04,4.16h0c2.08-1.04,5.2-2.08,7.279-4.16a45.228,45.228,0,0,1,7.279-6.239,57.684,57.684,0,0,0,6.239-8.319c2.08-3.12,4.16-5.2,6.239-8.319,1.04-1.04,1.04-1.04,1.04-2.08a3.631,3.631,0,0,0,1.04-2.08h2.08c1.04,0,2.08,1.04,3.12,1.04l2.08,2.08c1.04,1.04,0,1.04,0,2.08l-3.12,5.2h0c-3.12,5.2-7.279,9.359-11.439,14.559a70.6,70.6,0,0,1-12.479,12.479c-1.04,1.04-2.08,1.04-3.12,2.08s-2.08,1.04-4.16,2.08-3.12,1.04-4.16,2.08c-2.08,0-3.12,1.04-5.2,1.04-4.16,0-7.279-2.08-8.319-4.16-2.08-2.08-2.08-5.2-2.08-9.359-4.16,3.12-7.279,6.239-11.439,9.359-4.16,2.08-7.279,4.16-11.439,4.16a9.441,9.441,0,0,1-7.279-3.12c-2.08-1.04-3.12-3.12-4.16-5.2s-1.04-4.16-2.08-6.239V59.776c0-2.08,1.04-3.12,1.04-4.16A71.691,71.691,0,0,1,82,45.217a69.959,69.959,0,0,1,7.279-11.439c3.12-4.16,5.2-7.279,8.319-10.4A93.766,93.766,0,0,1,108,14.019,27.706,27.706,0,0,1,118.4,7.78,37.385,37.385,0,0,1,129.836,5.7h3.12a3.821,3.821,0,0,1,3.12,1.04,22.732,22.732,0,0,1,5.2,3.12,7.943,7.943,0,0,1,2.08,5.2V21.3A13.19,13.19,0,0,1,142.315,27.538Zm-14.559,0h3.12c1.04,0,2.08,1.04,3.12,1.04,0,0-1.04-1.04,0-1.04V20.259c0-1.04-1.04-1.04-1.04-2.08-1.04,0-1.04-1.04-2.08-1.04a16.773,16.773,0,0,0-9.359,3.12,67.281,67.281,0,0,0-9.359,8.319,46.174,46.174,0,0,0-8.319,11.439,91.442,91.442,0,0,1-6.239,10.4c0,1.04-1.04,2.08-1.04,3.12s-1.04,3.12-1.04,4.16v3.12c0,1.04,0,1.04,1.04,2.08s1.04,1.04,2.08,1.04h3.12c1.04,0,3.12-1.04,5.2-3.12s4.16-3.12,6.239-5.2a45.23,45.23,0,0,0,6.24-7.279c2.08-2.08,4.16-4.16,5.2-6.239s2.08-5.2,3.12-7.279,2.08-4.16,2.08-6.239Z" transform="translate(721.855 53.575)"/>
    <path id="Path_74" data-name="Path 74" class="cls-1" d="M131.814,65.115a59.444,59.444,0,0,1-7.279,8.319c-3.12,3.12-6.24,5.2-9.359,8.319l-9.359,6.239a36.948,36.948,0,0,1-10.4,2.08c-2.08,0-3.12-1.04-5.2-1.04s-2.08-2.08-3.12-3.12-1.04-3.12-1.04-5.2v-5.2c1.04-3.12,1.04-5.2,2.08-7.279s2.08-5.2,4.16-7.279c1.04-2.08,3.12-4.16,4.16-6.239,2.08-2.08,3.12-4.16,5.2-6.239l3.12-3.12h0l3.12-4.16a14.356,14.356,0,0,1,3.12-4.16c1.04-1.04,3.12-1.04,5.2-2.08A3.821,3.821,0,0,0,113.1,36h-2.08a3.82,3.82,0,0,0-3.12,1.04h-5.2c-2.08,3.12-4.16,5.2-6.239,8.319s-4.16,5.2-5.2,7.279h0a1.44,1.44,0,0,1-2.08,0A3.631,3.631,0,0,1,87.1,51.6l-2.08-2.08c-1.04-1.04,0-1.04,0-2.08h0a57.683,57.683,0,0,1,6.24-8.319,21.755,21.755,0,0,0,4.16-6.239c-1.04-1.04-1.04-3.12,0-5.2a11.234,11.234,0,0,1,3.12-7.279c2.08-2.08,3.12-4.16,5.2-7.279,1.04-1.04,1.04-2.08,2.08-3.12a22.734,22.734,0,0,0,3.12-5.2c1.04,2.08,2.08,2.08,3.12,3.12s2.08,1.04,3.12,2.08,1.04,2.08,2.08,3.12v4.16c0,1.04,0,1.04-1.04,2.08a3.82,3.82,0,0,0-1.04,3.12l-5.2,6.239s0,1.04,1.04,0c1.04,0,2.08-1.04,3.12-2.08,2.08-1.04,3.12-2.08,5.2-3.12a21.755,21.755,0,0,0,6.24-4.16c2.08-2.08,4.16-1.04,5.2-2.08s2.08-2.08,3.12-2.08a3.221,3.221,0,0,1,2.08,1.04c1.04,0,1.04,1.04,2.08,2.08l2.08,2.08,1.04,1.04s0,1.04,0,3.12-2.08,4.16-3.12,6.239a31.6,31.6,0,0,1-5.2,7.279c-2.08,2.08-4.16,5.2-7.279,8.319l-5.2,5.2-4.16,4.16a14.357,14.357,0,0,0-3.12,4.16c-1.04,1.04-2.08,3.12-3.12,4.16s-2.08,3.12-3.12,4.16-1.04,3.12-1.04,4.16a1.018,1.018,0,0,0,1.04,1.04,3.821,3.821,0,0,0,3.12-1.04,22.733,22.733,0,0,1,5.2-3.12c2.08-1.04,3.12-3.12,5.2-4.16,2.08-2.08,3.12-4.16,5.2-6.239h0c2.08-3.12,4.16-5.2,6.239-8.319,2.08-2.08,3.12-5.2,4.16-6.239h2.08a3.631,3.631,0,0,1,2.08,1.04c1.04,1.04,1.04,2.08,2.08,3.12v2.08h0l-4.16,6.239-6.24,8.319Z" transform="translate(794.751 45.116)"/>
    <path id="Path_75" data-name="Path 75" class="cls-1" d="M147.088,26.8c-5.2,7.279-10.4,13.519-17.679,18.718s-14.559,8.319-21.838,11.439V63.2c1.04,2.08,2.08,3.12,4.16,3.12h6.239c2.08-1.04,5.2-2.08,7.279-3.12,3.12-2.08,5.2-4.16,8.319-6.239l9.359-9.359a21.755,21.755,0,0,0,4.16-6.239c1.04-2.08,3.12-4.16,4.16-6.239,1.04-1.04,2.08-2.08,3.12-2.08a3.82,3.82,0,0,1,3.12,1.04c1.04,1.04,1.04,1.04,1.04,3.12a7.861,7.861,0,0,1-1.04,4.16l-3.12,4.16L145.008,58c-4.16,4.16-8.319,9.359-12.479,13.519-3.12,2.08-5.2,4.16-8.319,5.2a50.691,50.691,0,0,0-7.279,3.12,13.19,13.19,0,0,1-6.239,1.04h-4.16c-6.239,0-11.439-2.08-14.559-5.2q-4.68-6.24-3.12-15.6c1.04-5.2,2.08-11.439,5.2-16.639a141.465,141.465,0,0,1,12.479-17.679,45.228,45.228,0,0,1,7.279-6.239l9.359-6.239c3.12-2.08,6.239-3.12,10.4-5.2A36.948,36.948,0,0,1,143.968,6c3.12,0,6.239,1.04,7.279,3.12a20.766,20.766,0,0,1,2.08,9.359c0,2.08-1.04,3.12-1.04,5.2s-4.16,1.04-5.2,3.12Zm-7.279-10.4a36.94,36.94,0,0,0-9.359,4.16,52.087,52.087,0,0,0-8.319,7.279c-2.08,3.12-5.2,6.239-7.279,9.359s-4.16,6.239-5.2,9.359A52.739,52.739,0,0,0,126.289,37.2a54.726,54.726,0,0,0,12.479-14.559h0c0-1.04,1.04-1.04,1.04-2.08s0-1.04,1.04-2.08C141.888,16.4,140.848,15.359,139.808,16.4Z" transform="translate(831.472 56.395)"/>
  </g>
</svg>
